<svg aria-hidden="true" style="position: absolute; width: 0; height: 0; overflow: hidden;" version="1.1" xmlns="http://www.w3.org/2000/svg" xmlns:xlink="http://www.w3.org/1999/xlink">
<defs>
<symbol id="icon-faceboke" viewBox="0 0 33 32">
<path fill="#fff" style="fill: var(--color1, #fff)" d="M17.149 0c8.837 0 16 7.163 16 16s-7.163 16-16 16c-8.837 0-16-7.163-16-16s7.163-16 16-16z"></path>
<path fill="#001414" style="fill: var(--color2, #001414)" d="M21.149 13.181h-2.952v-1.661c0-0.624 0.482-0.769 0.821-0.769s2.083 0 2.083 0v-2.742l-2.869-0.010c-3.184 0-3.909 2.045-3.909 3.353v1.828h-1.842v2.825h1.842c0 3.626 0 7.994 0 7.994h3.873c0 0 0-4.411 0-7.994h2.614l0.338-2.825z"></path>
</symbol>
<symbol id="icon-Instagram" viewBox="0 0 33 32">
<path fill="#fff" style="fill: var(--color1, #fff)" d="M17.149 0c8.837 0 16 7.163 16 16s-7.163 16-16 16c-8.837 0-16-7.163-16-16s7.163-16 16-16z"></path>
<path fill="#001414" style="fill: var(--color2, #001414)" d="M25.149 9c0 0.552-0.448 1-1 1s-1-0.448-1-1c0-0.552 0.448-1 1-1s1 0.448 1 1z"></path>
<path fill="#001414" style="fill: var(--color2, #001414)" d="M17.149 23c-3.866 0-7-3.134-7-7s3.134-7 7-7c3.866 0 7 3.134 7 7s-3.134 7-7 7zM17.15 20.667c2.577 0 4.667-2.089 4.667-4.667s-2.089-4.667-4.667-4.667c-2.577 0-4.667 2.089-4.667 4.667s2.089 4.667 4.667 4.667z"></path>
</symbol>
<symbol id="icon-youtube" viewBox="0 0 33 32">
<path fill="#fff" style="fill: var(--color1, #fff)" d="M17.149 0c8.837 0 16 7.163 16 16s-7.163 16-16 16c-8.837 0-16-7.163-16-16s7.163-16 16-16z"></path>
<path fill="#001414" style="fill: var(--color2, #001414)" d="M23.401 10.986c0.688 0.176 1.231 0.694 1.415 1.351 0.334 1.192 0.334 3.679 0.334 3.679s0 2.487-0.334 3.679c-0.184 0.658-0.726 1.154-1.415 1.33-1.248 0.319-6.251 0.319-6.251 0.319s-5.003 0-6.251-0.319c-0.688-0.176-1.231-0.672-1.415-1.33-0.334-1.192-0.334-3.679-0.334-3.679s0-2.487 0.334-3.679c0.184-0.658 0.726-1.176 1.415-1.351 1.248-0.319 6.251-0.319 6.251-0.319s5.003 0 6.251 0.319zM15.513 13.758v4.516l4.182-2.258-4.182-2.258z"></path>
</symbol>
</defs>
</svg>
